<svg id="Layer_1" data-name="Layer 1" xmlns="http://www.w3.org/2000/svg" viewBox="0 0 130 50"><defs><style>.cls-1{fill:#f8cf11;}.cls-2,.cls-4{fill:#fff;}.cls-2,.cls-3{opacity:0.7;}</style></defs><path class="cls-1" d="M65.59,18q5.3-.49,4.87,8c0,.58-.26.88-.79.89H68.45c-.44,0-.65-.28-.65-.79q.3-6-3-5a27.63,27.63,0,0,0-.57,5c0,.55-.25.83-.76.83H62.27q-.69,0-.69-.75a24.78,24.78,0,0,1,1.64-9.15c.28-.59.65-.89,1.13-.89h.9c.6,0,.82.25.69.73Zm8.59,17.06c0,.57-.27.86-.8.86H62.47a.63.63,0,0,1-.72-.71V28.81c0-.54.24-.81.7-.81H73.38c.53,0,.8.25.8.75Zm-2.63-1.76V30.67h-7.3v2.72Zm2.63-7.16c0,.51-.23.77-.7.77H72.15c-.49,0-.73-.27-.73-.81V16.45c0-.48.22-.71.68-.71h1.42c.44,0,.66.23.66.71Z"/><path class="cls-1" d="M89.48,21.3c.49,0,.73.29.73.85v1.5c0,.57-.23.85-.7.85h-.77V35.13c0,.55-.22.83-.66.83H86.71c-.45,0-.68-.25-.68-.73v-.51H76.88c-.52,0-.79-.29-.79-.87V32.7c0-.6.25-.89.74-.89h2.35V30.65q-2.72-.66-2.76-4.29a7.19,7.19,0,0,1,.73-3.84h-.41q-.66,0-.66-1v-1.1c0-.69.24-1,.73-1h7.61c.51,0,.76.32.76,1v1.34c0,.55-.24.83-.77.83h-.57a7.21,7.21,0,0,1,.72,3.84q0,3.7-2.7,4.31v1.14H86V16.61c0-.57.26-.85.72-.85h1.33q.66,0,.66.75V21.3ZM78.21,18.51q-.75,0-.75-.93v-.95q0-.87.75-.87h4.71q.72,0,.72.87v1c0,.58-.21.87-.61.87Zm2.25,3.89c-.88,0-1.33,1.05-1.33,3.15,0,1.77.47,2.65,1.4,2.65s1.33-.88,1.33-2.65C81.86,23.45,81.4,22.4,80.46,22.4Z"/><path class="cls-1" d="M97,25.8c-.47,0-.71-.27-.72-.79v-8.5c0-.52.23-.77.67-.77h11.59c.43,0,.65.21.65.73v1.39a.6.6,0,0,1-.68.67H99.14v1h9c.41,0,.61.25.61.79v.91c0,.49-.22.73-.68.73h-9v1h9.39c.47,0,.7.27.7.79V25c0,.54-.24.81-.73.81Zm0,3.9c-.46,0-.69-.25-.69-.77V27.7c0-.53.25-.79.74-.79h11.49c.45,0,.68.25.68.75v1.25c0,.53-.25.79-.75.79Zm0,3.95c-.44,0-.67-.25-.67-.75V31.62c0-.51.21-.76.64-.76h11.57c.47,0,.7.25.7.74v3.57c0,.51-.23.77-.7.77h-1.38c-.45,0-.67-.25-.67-.75V33.65Z"/><path class="cls-1" d="M118.24,16.14c.37,0,.53.31.48.91q-.19,6.56-3.45,9.62a2.12,2.12,0,0,1-1.55.7h-1.35c-.35,0-.57-.1-.64-.31s0-.45.3-.74a9.22,9.22,0,0,0,3.45-6.78c.06-.35-.06-.52-.34-.52h-3.52c-.39,0-.58-.24-.58-.71V16.87c0-.48.19-.73.58-.73Zm-.46,12.17a13.28,13.28,0,0,1,2.84.25,5.05,5.05,0,0,1,1.84.75,2.73,2.73,0,0,1,1,1.24,4.66,4.66,0,0,1,.3,1.74,5.23,5.23,0,0,1-.27,1.77,2.6,2.6,0,0,1-.94,1.26,4.85,4.85,0,0,1-1.83.75,14,14,0,0,1-2.94.25,13.21,13.21,0,0,1-2.82-.25,5.13,5.13,0,0,1-1.84-.76,2.87,2.87,0,0,1-1-1.27,4.55,4.55,0,0,1-.31-1.77,5.4,5.4,0,0,1,.26-1.74,2.52,2.52,0,0,1,.93-1.24,4.75,4.75,0,0,1,1.84-.74A14.86,14.86,0,0,1,117.78,28.31Zm-.07,5.38a13.56,13.56,0,0,0,1.73-.1,4.18,4.18,0,0,0,1.11-.3,1.19,1.19,0,0,0,.77-1.18,1.39,1.39,0,0,0-.16-.65,1.16,1.16,0,0,0-.58-.46,4.13,4.13,0,0,0-1.12-.28,14.45,14.45,0,0,0-1.78-.09,13.92,13.92,0,0,0-1.75.09,4.23,4.23,0,0,0-1.12.28,1.27,1.27,0,0,0-.6.46,1.2,1.2,0,0,0-.18.65,1.25,1.25,0,0,0,.2.7,1.36,1.36,0,0,0,.62.48,4.24,4.24,0,0,0,1.13.3A13.8,13.8,0,0,0,117.71,33.69Zm6-13.86c.38,0,.56.25.56.74v1.64c0,.52-.18.77-.56.77h-.95v3.67c0,.51-.24.76-.7.76H120.7c-.45,0-.68-.25-.68-.76V16.45a.6.6,0,0,1,.67-.69h1.41q.69,0,.69.75v3.32Z"/><path class="cls-2" d="M52.3,19.87V31.19A2.55,2.55,0,0,1,50,33.89H9.39a1.75,1.75,0,0,1-.4,0v0a2.56,2.56,0,0,0,2.35,2.7H51.89a2.55,2.55,0,0,0,2.35-2.7V22.53A2.63,2.63,0,0,0,52.3,19.87Z"/><rect class="cls-2" x="19.21" y="27.08" width="3.01" height="0.64"/><path class="cls-2" d="M19.66,23.63a.61.61,0,0,0,.59-.35,2.47,2.47,0,0,0,.19-1c0-.86-.26-1.3-.78-1.3a.62.62,0,0,0-.58.32,2,2,0,0,0-.18,1,2.32,2.32,0,0,0,.19,1A.6.6,0,0,0,19.66,23.63Z"/><rect class="cls-2" x="29.35" y="22.44" width="1.03" height="2.96"/><rect class="cls-2" x="27.2" y="22.44" width="1.03" height="2.96"/><path class="cls-2" d="M50.92,17.38l-1.3.38-.49,1.56.47.44.22.71-.37-.56-.4-.28-.28,1.17-.09-1.17.25-1.27-.57-1.26-.72-.17.72-.36.44.36.34.46,1.31-.79a2.28,2.28,0,0,0-1-.7V16l.13.59-.49-.74v0a1.63,1.63,0,0,0-.31,0H8.22a2.56,2.56,0,0,0-2.35,2.7V29.84a2.55,2.55,0,0,0,2.35,2.7H48.78a2.54,2.54,0,0,0,2.34-2.7V18.48A3.07,3.07,0,0,0,50.92,17.38ZM11.6,20.25c0-.23.09-.35.28-.35h.62v-.19c0-.19.08-.28.23-.28h.64c.15,0,.22.09.22.28v.19h1.68c.19,0,.29.1.29.31v.65c0,.22-.09.32-.28.32h-2c0,.14-.08.28-.11.41,1.57-.33,2.36.82,2.35,3.44,0,.25-.09.38-.28.38h-.54c-.19,0-.28-.12-.28-.36,0-1.84-.49-2.54-1.5-2.12A17.52,17.52,0,0,0,12.82,25c0,.25-.1.37-.31.37H12c-.18,0-.28-.12-.28-.37a16.23,16.23,0,0,1,.45-3.86h-.32c-.17,0-.25-.1-.25-.3Zm5.45,8.3c0,.22-.09.34-.26.34h-.62c-.18,0-.26-.11-.26-.33V27.18H13.67v1.43c0,.19-.07.28-.22.28h-.68c-.16,0-.23-.11-.23-.32V27.18h-.69c-.18,0-.26-.12-.26-.34v-.62c0-.22.08-.33.25-.34h4.07V20c0-.22.09-.33.26-.33h.61c.18,0,.27.11.27.32Zm.79-6.31a6.23,6.23,0,0,1,.09-1.13,2.14,2.14,0,0,1,.3-.81,1.37,1.37,0,0,1,.56-.48,2,2,0,0,1,.87-.16,2.37,2.37,0,0,1,.72.1,1.47,1.47,0,0,1,.56.32,1.54,1.54,0,0,1,.38.57,2.5,2.5,0,0,1,.16.83h.64V20c0-.21.12-.32.37-.32h.4a.32.32,0,0,1,.36.36v4.3c0,.26-.1.4-.32.4h-.47c-.22,0-.34-.14-.34-.42V22.88h-.64a3.05,3.05,0,0,1-.17.88,1.61,1.61,0,0,1-.37.61,1.34,1.34,0,0,1-.56.34,2.27,2.27,0,0,1-.72.11,2.23,2.23,0,0,1-.88-.16,1.27,1.27,0,0,1-.56-.49,2,2,0,0,1-.29-.8A6.23,6.23,0,0,1,17.84,22.24Zm5.48,6.23q0,.42-.36.42H18.4a.27.27,0,0,1-.3-.3v-3a.29.29,0,0,1,.33-.33h.46a.29.29,0,0,1,.32.33V26h3v-.45q0-.33.3-.33H23c.21,0,.32.09.32.28Zm8.19.08c0,.22-.09.34-.27.35H26.41c-.21,0-.32-.14-.32-.41v-.44c0-.27.12-.41.35-.41h1.77v-1H26.44c-.23,0-.34-.14-.34-.41V20.07c0-.27.11-.4.34-.4h.44c.22,0,.32.13.32.4v1.15h1V20.07c0-.27.12-.4.35-.4H29c.22,0,.33.13.33.4v1.15h1V20.07c0-.27.12-.4.35-.4h.42c.23,0,.34.13.34.4v6.15c0,.29-.11.44-.33.44H29.35v1H31.2c.21,0,.31.13.31.4Zm2.24,0a.64.64,0,0,1-.57.24h-.37c-.16,0-.26-.06-.29-.19a.51.51,0,0,1,.13-.42,11.83,11.83,0,0,0,1.57-6.74c0-.14-.06-.22-.18-.22H32.6c-.17,0-.26-.12-.26-.37v-.56c0-.27.1-.4.29-.4h2.5c.2,0,.31.17.31.49Q35.47,26.1,33.75,28.51Zm4.56,0c0,.22-.11.34-.31.34h-.47q-.3,0-.3-.33V23.64H37v4.91c0,.22-.1.34-.3.34h-.47c-.2,0-.31-.11-.31-.33V20c0-.21.1-.31.28-.31h.51c.19,0,.29.11.29.33V22.2h.28V20c0-.21.09-.31.27-.31H38q.3,0,.3.33Zm2.16-.07a.67.67,0,0,1-.58.23h-.41c-.16,0-.25-.06-.28-.18s0-.26.17-.43a9.65,9.65,0,0,0,2.15-6.7c0-.14-.06-.22-.18-.22H39.4c-.17,0-.25-.12-.25-.37v-.56c0-.27.09-.4.27-.4h3c.21,0,.32.17.32.49C42.75,24.1,42,26.82,40.47,28.48Zm4,0c0,.28-.1.42-.29.42h-.56c-.2,0-.3-.14-.3-.4V20c0-.21.08-.32.26-.32h.61c.19,0,.28.11.28.33Zm1.28-8.81h.61c.25,0,.37.22.35.67l-.16,5.82c0,.25-.12.38-.3.4h-.42c-.16,0-.27-.12-.3-.36l-.2-5.86C45.27,19.89,45.41,19.66,45.7,19.67Zm.68,9.22h-.73c-.22,0-.33-.13-.32-.4l.07-.9c0-.22.11-.34.28-.33h.74c.18,0,.27.14.29.41l.06.82C46.77,28.77,46.64,28.91,46.38,28.89Z"/><g class="cls-3"><polygon class="cls-4" points="48.53 13.68 48.96 14.68 49.27 14.87 49.12 14.19 49.2 13.41 48.53 13.68"/><polygon class="cls-4" points="52.93 14.33 51.87 16.51 54.24 15.42 54.24 13.96 52.93 14.33"/><polygon class="cls-4" points="51.87 14.65 51.87 15.06 52.27 14.65 52.07 14.31 51.87 14.65"/></g><polygon class="cls-4" points="57.7 23.72 49.72 20.2 52.77 29.39 54.76 27.1 57.1 29.8 58.06 28.7 55.72 26 57.7 23.72"/></svg>