<svg width="120" height="24" viewBox="0 0 120 24" fill="none" xmlns="http://www.w3.org/2000/svg">
<g opacity="0.7">
<path d="M60.59 4.99999C64.1233 4.67332 65.7467 7.33999 65.46 13C65.46 13.58 65.2 13.88 64.68 13.89H63.45C63.01 13.89 62.8 13.61 62.8 13.1C63 9.09999 62 7.43332 59.8 8.09999C59.4583 9.74585 59.2675 11.4195 59.23 13.1C59.23 13.65 58.98 13.93 58.46 13.93H57.27C56.81 13.93 56.58 13.68 56.58 13.18C56.5446 10.0538 57.101 6.94923 58.22 4.02999C58.2951 3.78407 58.4436 3.56699 58.6455 3.4079C58.8475 3.24881 59.0934 3.15532 59.35 3.13999H60.25C60.85 3.13999 61.07 3.38999 60.94 3.86999L60.59 4.99999ZM69.18 22.07C69.18 22.63 68.91 22.92 68.38 22.92H57.47C57.3729 22.935 57.2737 22.927 57.1802 22.8968C57.0867 22.8666 57.0015 22.8149 56.9316 22.7459C56.8616 22.677 56.8088 22.5926 56.7772 22.4995C56.7457 22.4064 56.7364 22.3073 56.75 22.21V15.81C56.75 15.27 56.99 15 57.45 15H68.38C68.91 15 69.18 15.25 69.18 15.75V22.07ZM66.55 20.3V17.67H59.25V20.39L66.55 20.3ZM69.18 13.14C69.18 13.65 68.95 13.91 68.48 13.91H67.15C66.66 13.91 66.42 13.64 66.42 13.1V3.44999C66.42 2.96999 66.64 2.73999 67.1 2.73999H68.52C68.96 2.73999 69.18 2.96999 69.18 3.44999V13.14Z" fill="#424142"/>
<path d="M84.48 8.29995C84.97 8.29995 85.21 8.58995 85.21 9.14995V10.6499C85.21 11.2199 84.98 11.4999 84.51 11.4999H83.75V22.1299C83.75 22.6799 83.52 22.9599 83.08 22.9599H81.71C81.26 22.9599 81.03 22.7099 81.03 22.2299V21.7199H71.88C71.36 21.7199 71.09 21.4299 71.09 20.8499V19.6999C71.09 19.0999 71.34 18.8099 71.83 18.8099H74.18V17.6499C72.3667 17.2099 71.4467 15.7799 71.42 13.3599C71.3041 12.0371 71.5567 10.708 72.15 9.51995H71.74C71.3 9.51995 71.08 9.18662 71.08 8.51995V7.41995C71.08 6.72995 71.32 6.41995 71.81 6.41995H79.43C79.93 6.41995 80.18 6.73995 80.18 7.41995V8.75995C80.18 9.30995 79.94 9.58995 79.41 9.58995H78.85C79.4296 10.7822 79.6749 12.1093 79.56 13.4299C79.56 15.8966 78.66 17.3333 76.86 17.7399V18.8799H81V3.60995C81 3.03995 81.26 2.75995 81.72 2.75995H83.05C83.49 2.75995 83.72 3.00995 83.72 3.50995V8.29995H84.48ZM73.21 5.50995C72.71 5.50995 72.46 5.19995 72.46 4.57995V3.62995C72.46 3.04995 72.71 2.75995 73.21 2.75995H77.92C78.4 2.75995 78.64 3.04995 78.64 3.62995V4.62995C78.64 5.20995 78.44 5.49995 78.03 5.49995L73.21 5.50995ZM75.46 9.39995C74.58 9.39995 74.13 10.4499 74.13 12.5499C74.13 14.3199 74.6 15.1999 75.53 15.1999C76.46 15.1999 76.86 14.3199 76.86 12.5499C76.86 10.4499 76.4 9.39995 75.46 9.39995V9.39995Z" fill="#424142"/>
<path d="M92 12.8C91.54 12.8 91.3 12.53 91.29 12.01V3.50999C91.29 2.98999 91.51 2.73999 91.95 2.73999H103.54C103.98 2.73999 104.19 2.94999 104.19 3.46999V4.85999C104.204 4.95206 104.196 5.0461 104.166 5.13443C104.137 5.22276 104.087 5.30288 104.021 5.36822C103.954 5.43357 103.874 5.48229 103.785 5.51041C103.696 5.53852 103.602 5.54523 103.51 5.52999H94.14V6.52999H103.14C103.55 6.52999 103.76 6.77999 103.76 7.31999V8.22999C103.76 8.71999 103.53 8.95999 103.07 8.95999H94.07V9.95999H103.46C103.93 9.95999 104.16 10.23 104.16 10.75V12C104.16 12.54 103.92 12.81 103.43 12.81L92 12.8ZM92 16.7C91.54 16.7 91.32 16.45 91.32 15.93V14.7C91.32 14.17 91.56 13.91 92.05 13.91H103.54C104 13.91 104.22 14.16 104.22 14.66V15.91C104.22 16.44 103.97 16.7 103.47 16.7H92ZM92 20.65C91.56 20.65 91.34 20.4 91.34 19.9V18.62C91.34 18.11 91.55 17.86 91.97 17.86H103.54C104.01 17.86 104.24 18.11 104.24 18.6V22.17C104.24 22.68 104.01 22.94 103.54 22.94H102.16C101.72 22.94 101.49 22.69 101.49 22.19V20.65H92Z" fill="#424142"/>
<path d="M113.25 3.13998C113.61 3.13998 113.77 3.44998 113.72 4.04998C113.593 8.42331 112.447 11.63 110.28 13.67C110.081 13.8867 109.84 14.0605 109.572 14.1809C109.304 14.3013 109.014 14.3656 108.72 14.37H107.37C107.02 14.37 106.81 14.27 106.73 14.06C106.65 13.85 106.73 13.61 107.03 13.32C108.054 12.5004 108.892 11.4716 109.487 10.3024C110.082 9.13318 110.42 7.85049 110.48 6.53998C110.54 6.18998 110.42 6.01998 110.14 6.01998H106.62C106.24 6.01998 106.04 5.77998 106.04 5.30998V3.86998C106.04 3.37998 106.24 3.13998 106.62 3.13998H113.25ZM112.79 15.31C113.743 15.2917 114.695 15.3755 115.63 15.56C116.286 15.6877 116.911 15.9425 117.47 16.31C117.918 16.6165 118.265 17.0476 118.47 17.55C118.68 18.1056 118.782 18.6962 118.77 19.29C118.781 19.8902 118.693 20.4881 118.51 21.06C118.317 21.5744 117.967 22.0152 117.51 22.32C116.958 22.693 116.335 22.9483 115.68 23.07C114.715 23.2559 113.733 23.3397 112.75 23.32C111.8 23.3378 110.852 23.254 109.92 23.07C109.262 22.9425 108.636 22.6841 108.08 22.31C107.632 21.9912 107.285 21.5504 107.08 21.04C106.86 20.4765 106.755 19.8747 106.77 19.27C106.761 18.6797 106.849 18.0919 107.03 17.53C107.206 17.0285 107.535 16.5948 107.97 16.29C108.521 15.9166 109.145 15.6643 109.8 15.55C110.786 15.3696 111.788 15.2892 112.79 15.31V15.31ZM112.71 20.69C113.288 20.6986 113.867 20.6652 114.44 20.59C114.823 20.544 115.196 20.4429 115.55 20.29C115.791 20.1946 115.998 20.0269 116.14 19.81C116.264 19.5977 116.326 19.3555 116.32 19.11C116.325 18.883 116.27 18.6586 116.16 18.46C116.022 18.2474 115.818 18.0859 115.58 18C115.225 17.8539 114.852 17.7596 114.47 17.72C113.876 17.6534 113.278 17.6234 112.68 17.63C112.095 17.6234 111.511 17.6535 110.93 17.72C110.546 17.7617 110.169 17.8559 109.81 18C109.568 18.0888 109.359 18.2493 109.21 18.46C109.089 18.655 109.027 18.8806 109.03 19.11C109.026 19.358 109.095 19.6017 109.23 19.81C109.387 20.0254 109.602 20.1918 109.85 20.29C110.215 20.4402 110.598 20.5411 110.99 20.59C111.56 20.6645 112.135 20.6979 112.71 20.69V20.69ZM118.71 6.82998C119.09 6.82998 119.28 7.07998 119.28 7.56998V9.20998C119.28 9.72998 119.09 9.97998 118.71 9.97998H117.76V13.65C117.76 14.16 117.52 14.42 117.06 14.42H115.68C115.22 14.42 114.99 14.16 114.99 13.65V3.44998C114.975 3.35776 114.982 3.26336 115.01 3.1743C115.038 3.08524 115.087 3.00397 115.152 2.93696C115.217 2.86996 115.297 2.81907 115.385 2.78834C115.473 2.75762 115.567 2.7479 115.66 2.75998H117.08C117.53 2.75998 117.76 3.00998 117.76 3.50998V6.82998H118.71Z" fill="#424142"/>
<path opacity="0.7" d="M47.3 6.87V18.19C47.342 18.8505 47.1255 19.5015 46.6963 20.0054C46.2671 20.5092 45.6588 20.8264 45 20.89H4.39003C4.25713 20.9053 4.12292 20.9053 3.99003 20.89V20.89C3.94592 21.5575 4.16693 22.2154 4.60505 22.721C5.04317 23.2265 5.66303 23.5388 6.33003 23.59H46.89C47.5578 23.5387 48.1787 23.2268 48.6184 22.7216C49.0581 22.2164 49.2814 21.5585 49.24 20.89V9.52999C49.2677 8.93203 49.0905 8.34253 48.7377 7.85889C48.385 7.37525 47.8778 7.02641 47.3 6.87V6.87Z" fill="#797979"/>
<path opacity="0.7" d="M17.22 14.08H14.21V14.72H17.22V14.08Z" fill="#797979"/>
<path opacity="0.7" d="M14.6601 10.63C14.7819 10.6362 14.9029 10.6063 15.0079 10.544C15.1128 10.4818 15.1971 10.3899 15.2501 10.28C15.3826 9.96385 15.444 9.62247 15.4301 9.27998C15.4301 8.41998 15.1801 7.97998 14.6601 7.97998C14.543 7.97301 14.4264 7.99938 14.3237 8.05602C14.2211 8.11266 14.1366 8.19725 14.0801 8.29998C13.935 8.61226 13.873 8.9567 13.9001 9.29998C13.8861 9.64247 13.9475 9.98385 14.0801 10.3C14.1352 10.4046 14.2191 10.4912 14.3219 10.5497C14.4246 10.6081 14.542 10.636 14.6601 10.63V10.63Z" fill="#797979"/>
<path opacity="0.7" d="M25.38 9.44H24.35V12.4H25.38V9.44Z" fill="#797979"/>
<path opacity="0.7" d="M23.23 9.44H22.2V12.4H23.23V9.44Z" fill="#797979"/>
<path opacity="0.7" d="M45.91 4.37997L44.62 4.75998L44.13 6.31997L44.6 6.75998L44.82 7.46997L44.45 6.90998L44.05 6.62997L43.77 7.79997L43.67 6.62997L43.93 5.35998L43.36 4.09998L42.63 3.91998L43.36 3.56997L43.8 3.91998L44.14 4.38997L45.45 3.59998C45.1865 3.28009 44.8408 3.03808 44.45 2.89997V2.99998L44.58 3.58998L44.09 2.84998H43.78H3.21003C2.54304 2.90119 1.92318 3.21347 1.48506 3.719C1.04694 4.22452 0.82593 4.88247 0.870032 5.54997V16.84C0.82593 17.5075 1.04694 18.1654 1.48506 18.671C1.92318 19.1765 2.54304 19.4888 3.21003 19.54H43.78C44.447 19.4888 45.0669 19.1765 45.505 18.671C45.9431 18.1654 46.1641 17.5075 46.12 16.84V5.47997C46.1229 5.10308 46.0516 4.72929 45.91 4.37997ZM6.60003 7.24998C6.60003 7.01998 6.69003 6.89997 6.87003 6.89997H7.50003V6.70997C7.50003 6.51997 7.57003 6.42998 7.73003 6.42998H8.37003C8.51003 6.42998 8.59003 6.51997 8.59003 6.70997V6.89997H10.27C10.46 6.89997 10.55 6.99997 10.55 7.20997V7.85998C10.55 8.07998 10.46 8.17998 10.28 8.17998H8.28003C8.28003 8.31998 8.20003 8.45998 8.17003 8.58998C9.74337 8.26331 10.5267 9.40998 10.52 12.03C10.52 12.28 10.43 12.41 10.24 12.41H9.70003C9.51003 12.41 9.42003 12.29 9.42003 12.05C9.42003 10.21 8.92003 9.50998 7.92003 9.92998C7.84588 10.6174 7.81249 11.3086 7.82003 12C7.82003 12.25 7.72003 12.37 7.51003 12.37H7.00003C6.81003 12.37 6.72003 12.25 6.72003 12C6.71747 10.7007 6.86512 9.40539 7.16003 8.13997H6.84003C6.68003 8.13997 6.60003 8.03998 6.60003 7.83998V7.24998ZM12 15.55C12 15.77 11.92 15.89 11.75 15.89H11.12C10.95 15.89 10.86 15.78 10.86 15.56V14.18H8.67003V15.61C8.67003 15.8 8.59003 15.89 8.45003 15.89H7.77003C7.61003 15.89 7.53003 15.78 7.53003 15.57V14.18H6.84003C6.67003 14.18 6.58003 14.06 6.58003 13.84V13.22C6.58003 13 6.67003 12.89 6.84003 12.88H10.9V6.99998C10.9 6.77998 10.99 6.66998 11.17 6.66998H11.77C11.95 6.66998 12.04 6.77997 12.04 6.98997L12 15.55ZM12.8 9.23997C12.7956 8.86136 12.8258 8.48312 12.89 8.10998C12.9339 7.82239 13.036 7.54678 13.19 7.29997C13.3269 7.08964 13.5212 6.92304 13.75 6.81997C14.0245 6.70237 14.3217 6.6477 14.62 6.65998C14.8637 6.65609 15.1066 6.68982 15.34 6.75998C15.546 6.82852 15.7364 6.93729 15.9 7.07998C16.0679 7.23903 16.1978 7.43385 16.28 7.64997C16.3765 7.9162 16.4272 8.19683 16.43 8.47997H17.08V6.99998C17.08 6.78998 17.2 6.67998 17.45 6.67998H17.85C17.8989 6.67337 17.9486 6.67813 17.9952 6.69389C18.0419 6.70965 18.0844 6.73597 18.1192 6.77081C18.154 6.80566 18.1804 6.84807 18.1961 6.89476C18.2119 6.94145 18.2166 6.99115 18.21 7.03998V11.34C18.21 11.6 18.11 11.74 17.89 11.74H17.42C17.19 11.74 17.08 11.6 17.08 11.32V9.87997H16.44C16.427 10.1801 16.3697 10.4766 16.27 10.76C16.1939 10.9884 16.0674 11.1969 15.9 11.37C15.7444 11.5279 15.552 11.6447 15.34 11.71C15.1072 11.7837 14.8643 11.8208 14.62 11.82C14.3157 11.8266 14.013 11.7722 13.73 11.66C13.5013 11.5561 13.3095 11.3852 13.18 11.17C13.0271 10.9272 12.9282 10.6544 12.89 10.37C12.8391 9.9956 12.8224 9.61738 12.84 9.23997H12.8ZM18.28 15.47C18.28 15.75 18.16 15.89 17.92 15.89H13.39C13.3498 15.8952 13.309 15.8909 13.2707 15.8775C13.2324 15.8641 13.1978 15.842 13.1697 15.8128C13.1415 15.7837 13.1205 15.7484 13.1084 15.7097C13.0963 15.671 13.0935 15.63 13.1 15.59V12.59C13.1 12.37 13.2 12.26 13.42 12.26H13.89C13.9342 12.2549 13.9789 12.2601 14.0207 12.275C14.0625 12.29 14.1003 12.3143 14.1313 12.3462C14.1622 12.3781 14.1854 12.4167 14.199 12.4589C14.2127 12.5012 14.2164 12.546 14.21 12.59V13H17.21V12.55C17.21 12.33 17.31 12.22 17.51 12.22H18C18.21 12.22 18.32 12.31 18.32 12.5L18.28 15.47ZM26.47 15.55C26.47 15.77 26.38 15.89 26.2 15.9H21.4C21.19 15.9 21.09 15.76 21.09 15.49V15.05C21.09 14.78 21.21 14.64 21.44 14.64H23.2V13.64H21.44C21.21 13.64 21.1 13.5 21.1 13.23V7.06997C21.1 6.79997 21.21 6.66998 21.44 6.66998H21.88C22.1 6.66998 22.2 6.79997 22.2 7.06997V8.21997H23.2V7.06997C23.2 6.79997 23.32 6.66998 23.54 6.66998H24C24.22 6.66998 24.33 6.79997 24.33 7.06997V8.21997H25.33V7.06997C25.33 6.79997 25.45 6.66998 25.68 6.66998H26.1C26.32 6.66998 26.44 6.79997 26.44 7.06997V13.22C26.44 13.51 26.33 13.66 26.11 13.66H24.35V14.66H26.2C26.41 14.66 26.51 14.79 26.51 15.06L26.47 15.55ZM28.71 15.55C28.6424 15.6342 28.5549 15.7002 28.4554 15.7421C28.3559 15.784 28.2475 15.8005 28.14 15.79H27.77C27.61 15.79 27.51 15.73 27.48 15.6C27.469 15.5247 27.475 15.4479 27.4974 15.3752C27.5199 15.3026 27.5584 15.2359 27.61 15.18C28.7935 13.14 29.3402 10.7929 29.18 8.43998C29.18 8.28998 29.12 8.21997 29 8.21997H27.6C27.43 8.21997 27.34 8.09998 27.34 7.84998V7.28998C27.34 7.01998 27.44 6.88997 27.63 6.88997H30.12C30.33 6.88997 30.44 7.05997 30.44 7.37997C30.46 11.1933 29.8967 13.9033 28.75 15.51L28.71 15.55ZM33.26 15.55C33.26 15.77 33.16 15.89 32.96 15.89H32.49C32.29 15.89 32.19 15.78 32.19 15.56V10.64H32V15.55C32 15.77 31.9 15.89 31.7 15.89H31.23C31.02 15.89 30.92 15.78 30.92 15.56V6.99998C30.92 6.78998 31.01 6.68998 31.2 6.68998H31.71C31.9 6.68998 32 6.79998 32 7.01998V9.19998H32.28V6.99998C32.28 6.78998 32.37 6.68998 32.55 6.68998H33C33.19 6.68998 33.29 6.79998 33.29 7.01998L33.26 15.55ZM35.43 15.48C35.3587 15.5618 35.2689 15.6254 35.168 15.6654C35.0671 15.7054 34.958 15.7207 34.85 15.71H34.43C34.3697 15.7175 34.3086 15.7035 34.2575 15.6707C34.2063 15.6378 34.1683 15.588 34.15 15.53C34.15 15.41 34.15 15.27 34.32 15.1C35.8633 13.2217 36.6322 10.8256 36.47 8.39997C36.47 8.24997 36.47 8.17998 36.3 8.17998H34.4C34.23 8.17998 34.15 8.05997 34.15 7.80997V7.24998C34.15 6.97998 34.24 6.84998 34.42 6.84998H37.42C37.64 6.84998 37.74 7.01998 37.74 7.33998C37.75 11.1 37 13.82 35.47 15.48H35.43ZM39.43 15.48C39.43 15.76 39.33 15.9 39.14 15.9H38.58C38.38 15.9 38.27 15.76 38.27 15.5V6.99998C38.27 6.78998 38.36 6.67998 38.54 6.67998H39.15C39.33 6.67998 39.43 6.78998 39.43 7.00998V15.48ZM40.71 6.66998H41.32C41.57 6.66998 41.69 6.88998 41.67 7.33998L41.51 13.16C41.51 13.41 41.39 13.54 41.21 13.56H40.79C40.6167 13.56 40.5167 13.44 40.49 13.2L40.29 7.33998C40.27 6.88998 40.41 6.65998 40.7 6.66998H40.71ZM41.39 15.89H40.66C40.44 15.89 40.33 15.76 40.34 15.49L40.41 14.59C40.41 14.37 40.52 14.25 40.68 14.26H41.43C41.6 14.26 41.7 14.4 41.72 14.67V15.49C41.76 15.77 41.64 15.91 41.38 15.89H41.39Z" fill="#797979"/>
<g opacity="0.7">
<path d="M43.53 0.679974L43.96 1.67997L44.27 1.86997L44.12 1.18997L44.2 0.409973L43.53 0.679974Z" fill="#797979"/>
<path d="M47.9301 1.32995L46.8701 3.50995L49.2401 2.41995V0.949951L47.9301 1.32995Z" fill="#797979"/>
<path d="M46.8701 1.65V2.06L47.2701 1.65L47.0701 1.31L46.8701 1.65Z" fill="#797979"/>
</g>
<path d="M52.7 10.7199L44.72 7.19995L47.77 16.3899L49.76 14.1L52.1 16.7999L53.06 15.7L50.72 13L52.7 10.7199Z" fill="#797979"/>
</g>
</svg>
