<svg width="115" height="24" viewBox="0 0 115 24" fill="none" xmlns="http://www.w3.org/2000/svg">
<g opacity="0.7">
<path d="M60.85 6.00002C61.412 6.00008 61.9614 6.16627 62.4292 6.47769C62.8969 6.78912 63.2622 7.23189 63.479 7.75034C63.6959 8.26878 63.7546 8.83976 63.6478 9.39148C63.5411 9.94321 63.2736 10.4511 62.879 10.8512C62.4844 11.2513 61.9803 11.5259 61.4301 11.6403C60.88 11.7547 60.3082 11.704 59.7868 11.4944C59.2654 11.2848 58.8176 10.9257 58.4997 10.4623C58.1817 9.99896 58.0079 9.45193 58 8.89002C57.9961 8.51276 58.0668 8.13845 58.2081 7.78864C58.3494 7.43884 58.5586 7.12045 58.8235 6.85182C59.0884 6.58319 59.4038 6.36963 59.7516 6.22344C60.0995 6.07725 60.4727 6.00132 60.85 6.00002M60.85 2.14002C59.5229 2.14002 58.2256 2.53356 57.1221 3.27086C56.0187 4.00817 55.1586 5.05612 54.6508 6.28222C54.1429 7.50831 54.01 8.85747 54.2689 10.1591C54.5279 11.4607 55.1669 12.6563 56.1053 13.5947C57.0437 14.5331 58.2394 15.1722 59.541 15.4311C60.8426 15.69 62.1917 15.5571 63.4178 15.0493C64.6439 14.5414 65.6919 13.6814 66.4292 12.5779C67.1665 11.4744 67.56 10.1771 67.56 8.85002C67.5613 7.96848 67.3887 7.09535 67.0519 6.28066C66.7152 5.46597 66.221 4.72574 65.5976 4.1024C64.9743 3.47906 64.2341 2.98485 63.4194 2.64811C62.6047 2.31137 61.7316 2.13871 60.85 2.14002V2.14002Z" fill="#797979"/>
<path d="M60.85 10.93C61.9767 10.93 62.89 10.0166 62.89 8.88997C62.89 7.76331 61.9767 6.84998 60.85 6.84998C59.7233 6.84998 58.81 7.76331 58.81 8.88997C58.81 10.0166 59.7233 10.93 60.85 10.93Z" fill="#424142"/>
<path d="M60.85 1.54997C62.3021 1.54799 63.7222 1.97679 64.9306 2.78212C66.139 3.58745 67.0813 4.7331 67.6384 6.07414C68.1955 7.41517 68.3423 8.89131 68.0602 10.3158C67.7781 11.7403 67.0798 13.0491 66.0537 14.0766C65.0276 15.1041 63.7197 15.8042 62.2956 16.0882C60.8715 16.3722 59.3952 16.2275 58.0534 15.6722C56.7116 15.1169 55.5647 14.1762 54.7577 12.9689C53.9507 11.7616 53.52 10.3421 53.52 8.88997C53.52 6.94501 54.2919 5.07957 55.6663 3.70334C57.0406 2.32711 58.905 1.55262 60.85 1.54997M60.85 1.21997C59.333 1.21997 57.8501 1.66981 56.5888 2.5126C55.3274 3.35539 54.3444 4.55328 53.7638 5.95479C53.1833 7.3563 53.0314 8.89848 53.3274 10.3863C53.6233 11.8741 54.3538 13.2408 55.4265 14.3135C56.4992 15.3861 57.8658 16.1166 59.3537 16.4126C60.8415 16.7085 62.3837 16.5567 63.7852 15.9761C65.1867 15.3956 66.3846 14.4125 67.2274 13.1512C68.0702 11.8899 68.52 10.407 68.52 8.88997C68.52 7.88273 68.3216 6.88536 67.9362 5.95479C67.5507 5.02422 66.9857 4.17869 66.2735 3.46646C65.5613 2.75424 64.7157 2.18927 63.7852 1.80381C62.8546 1.41836 61.8572 1.21997 60.85 1.21997Z" fill="#797979"/>
<path d="M67.44 1.00999L66.26 0.179993L64.38 2.86999L63.27 2.08999L61.04 8.88999L66.67 4.46999L65.56 3.68999L67.44 1.00999Z" fill="#191818"/>
<path d="M6.78 2.44997C5.0748 2.32713 3.38124 2.81252 2 3.81997C1.44658 4.32246 1.01287 4.94264 0.730783 5.63488C0.448696 6.32712 0.325411 7.07379 0.369998 7.81997V17.65C0.313291 18.4496 0.429532 19.252 0.710808 20.0027C0.992084 20.7533 1.43179 21.4345 2 22C3.33661 23.0828 5.03393 23.6188 6.75 23.5C8.47316 23.627 10.1797 23.0903 11.52 22C12.0895 21.4392 12.531 20.7619 12.814 20.0145C13.0971 19.2671 13.2151 18.4673 13.16 17.67V7.85997C13.2058 7.11458 13.0841 6.36838 12.8038 5.67619C12.5234 4.984 12.0916 4.3634 11.54 3.85997C10.1638 2.85787 8.47839 2.3728 6.78 2.48997V2.44997ZM6.78 19.71C6.59131 19.7313 6.40029 19.704 6.22521 19.6304C6.05012 19.5569 5.89683 19.4397 5.78 19.29C5.54444 18.8702 5.43995 18.3896 5.48 17.91V7.81997C5.48 6.81997 5.92 6.25997 6.78 6.25997C7.64 6.25997 8 6.76997 8 7.78997V17.89C8 19.1 7.61 19.71 6.82 19.71H6.78Z" fill="#797979"/>
<path d="M21 11C20.5758 10.9439 20.1443 10.991 19.7422 11.1372C19.34 11.2834 18.9791 11.5245 18.69 11.84V11.13H15V23.37H18.65V14.75C18.65 14.5187 18.6701 14.2879 18.71 14.06C18.7285 13.8448 18.8162 13.6413 18.96 13.48C19.0369 13.397 19.132 13.3331 19.2379 13.2931C19.3438 13.2532 19.4575 13.2385 19.57 13.25C19.6938 13.2377 19.8187 13.259 19.9313 13.3118C20.044 13.3647 20.1403 13.447 20.21 13.55C20.3287 13.7533 20.3908 13.9846 20.39 14.22V23.37H24V13.92C24.0452 13.1375 23.7874 12.3675 23.28 11.77C22.9737 11.4912 22.613 11.2789 22.2206 11.1464C21.8282 11.0139 21.4126 10.964 21 11V11Z" fill="#797979"/>
<path d="M29.94 11C28.7525 10.9359 27.5746 11.2435 26.57 11.88C26.1651 12.1747 25.8404 12.5661 25.6256 13.0185C25.4107 13.4709 25.3126 13.9699 25.34 14.47V19.39C25.3188 20.1516 25.4621 20.9088 25.76 21.61C26.0474 22.221 26.539 22.7126 27.15 23C27.9684 23.358 28.8574 23.5256 29.75 23.49C30.691 23.5226 31.6282 23.3556 32.5 23C33.1313 22.7231 33.6398 22.2252 33.93 21.6C34.2315 20.8717 34.3746 20.0877 34.35 19.3V18.61H30.72V19.78C30.727 20.1194 30.6762 20.4575 30.57 20.78C30.48 21.04 30.24 21.17 29.86 21.17C29.7547 21.1794 29.6486 21.1665 29.5486 21.132C29.4487 21.0975 29.3571 21.0423 29.28 20.97C29.1547 20.8226 29.0748 20.6419 29.05 20.45C29.0298 20.2371 29.0298 20.0228 29.05 19.81V17.51H34.36C34.36 17.14 34.36 16.42 34.36 15.34V14.45C34.36 12.1433 32.89 10.9866 29.95 10.98L29.94 11ZM28.94 16.08V14.41C28.9006 14.0588 28.9855 13.705 29.18 13.41C29.2656 13.3159 29.371 13.242 29.4886 13.1936C29.6062 13.1452 29.733 13.1235 29.86 13.13C29.9778 13.1239 30.0952 13.1472 30.2017 13.1978C30.3082 13.2484 30.4004 13.3248 30.47 13.42C30.6422 13.7234 30.7156 14.0729 30.68 14.42V16.07L28.94 16.08Z" fill="#797979"/>
<path d="M37.73 23.33V2.63997H44.57C45.7612 2.57624 46.9472 2.83902 48 3.39997C48.8306 3.90056 49.4656 4.6696 49.8 5.57997C50.1867 6.65704 50.3731 7.7958 50.35 8.93997C50.3681 10.0473 50.2129 11.1506 49.89 12.21C49.6141 13.0975 49.0377 13.8612 48.26 14.37C47.2539 14.9403 46.1045 15.2077 44.95 15.14H42.82V23.33H37.73ZM42.82 11.42H43.12C44.12 11.42 44.67 11.21 44.88 10.77C45.1327 10.1699 45.2456 9.52014 45.21 8.86997C45.2384 8.24716 45.1292 7.62573 44.89 7.04997C44.68 6.61997 44.18 6.40997 43.39 6.40997H42.82V11.42Z" fill="#424242"/>
<path d="M53.44 23.5C50.58 23.5 49.16 22.31 49.16 19.94V15.34C49.1406 14.8524 49.2322 14.3668 49.428 13.9199C49.6237 13.4729 49.9185 13.0763 50.29 12.76C51.221 12.1284 52.3201 11.7908 53.445 11.7908C54.57 11.7908 55.6691 12.1284 56.6 12.76C56.9715 13.0763 57.2663 13.4729 57.4621 13.9199C57.6578 14.3668 57.7495 14.8524 57.73 15.34V19.94C57.73 22.3133 56.3 23.5 53.44 23.5ZM53.44 21.39C53.5557 21.3991 53.6718 21.3813 53.7794 21.3379C53.887 21.2945 53.9831 21.2268 54.06 21.14C54.1844 20.954 54.2474 20.7336 54.24 20.51V14.91C54.24 14.24 53.98 13.91 53.44 13.91C52.9 13.91 52.64 14.24 52.64 14.91V20.51C52.6327 20.7336 52.6956 20.954 52.82 21.14C52.897 21.2268 52.9931 21.2945 53.1006 21.3379C53.2082 21.3813 53.3244 21.3991 53.44 21.39Z" fill="#424242"/>
<path d="M59 23.37V11.91H62.4V23.37H59Z" fill="#424242"/>
<path d="M63.76 23.37V11.91H67.18V13.37C67.3078 12.9378 67.5537 12.5499 67.89 12.25C68.2989 11.9208 68.8162 11.7567 69.34 11.79C69.7179 11.7298 70.1046 11.7583 70.4696 11.8731C70.8346 11.988 71.168 12.186 71.4434 12.4517C71.7187 12.7174 71.9286 13.0434 72.0565 13.4041C72.1843 13.7648 72.2266 14.1502 72.18 14.53V23.37H68.81V14.82C68.8106 14.5986 68.7519 14.3811 68.64 14.19C68.5743 14.0939 68.4839 14.0171 68.3783 13.9679C68.2728 13.9186 68.1559 13.8986 68.04 13.91C67.934 13.9019 67.8274 13.9164 67.7274 13.9526C67.6274 13.9888 67.5363 14.0459 67.46 14.12C67.3342 14.2787 67.2546 14.469 67.23 14.67C67.2152 14.8831 67.2152 15.0969 67.23 15.31V23.37H63.76Z" fill="#424242"/>
<path d="M76.47 23.5C75.8066 23.5664 75.1417 23.3886 74.6 23C74.2534 22.6033 74.0773 22.0858 74.11 21.56V14.44H73.11V12.36H74.11V9.92999H77.44V12.36H78.44V14.44H77.44V20.94C77.4319 21.0113 77.4383 21.0836 77.4589 21.1523C77.4796 21.2211 77.5139 21.2849 77.56 21.34C77.6217 21.3882 77.6924 21.4236 77.7679 21.4442C77.8435 21.4648 77.9224 21.4702 78 21.46C78.1364 21.471 78.2735 21.471 78.41 21.46V23.32L77.69 23.44C77.2854 23.4901 76.8776 23.5102 76.47 23.5V23.5Z" fill="#424242"/>
<path d="M88.85 15.72H84.9V18.3H88.9V22.09H81.59V11.93H85.59V8.65001H81.59V4.84001H88.85V15.72ZM93.73 23.82H90.55V15.75H89.18V12H90.53V4.71H93.71L93.73 23.82ZM97.42 23.82H94.23V4.63H97.42V23.82Z" fill="#797979"/>
<path d="M99.91 13.5H114.91V17.06H99.91V13.5ZM107.41 9.73002C106.624 10.6087 105.645 11.2933 104.55 11.73C103.344 12.2206 102.052 12.4654 100.75 12.45L100.12 9.00002C101.046 9.01734 101.965 8.82952 102.81 8.45002C103.563 8.10916 104.21 7.56992 104.68 6.89002C105.149 6.20803 105.416 5.40722 105.45 4.58002H109.37C109.404 5.40722 109.671 6.20803 110.14 6.89002C110.614 7.55013 111.257 8.07146 112 8.40002C112.845 8.77952 113.764 8.96734 114.69 8.95002L114.06 12.49C112.758 12.5062 111.466 12.2614 110.26 11.77C109.165 11.3204 108.189 10.622 107.41 9.73002V9.73002ZM104.24 18.06V20.29H114.49V23.82H100.33V18.06H104.24Z" fill="#797979"/>
</g>
</svg>
