<svg id="Layer_1" data-name="Layer 1" xmlns="http://www.w3.org/2000/svg" viewBox="0 0 130 50"><defs><style>.cls-1{fill:#fff;}.cls-2{fill:#412118;}.cls-3{fill:#191818;}.cls-4{fill:#6d301b;}</style></defs><path class="cls-1" d="M67.79,19.16A2.79,2.79,0,1,1,65,22a2.8,2.8,0,0,1,2.79-2.79m0-3.79A6.58,6.58,0,1,0,74.37,22a6.58,6.58,0,0,0-6.58-6.58Z"/><circle class="cls-2" cx="67.79" cy="21.95" r="2"/><path class="cls-1" d="M67.79,14.76A7.19,7.19,0,1,1,60.61,22a7.2,7.2,0,0,1,7.18-7.19m0-.32A7.51,7.51,0,1,0,75.31,22a7.51,7.51,0,0,0-7.52-7.51Z"/><polygon class="cls-3" points="74.25 14.22 73.1 13.42 71.25 16.05 70.16 15.28 67.98 21.95 73.5 17.62 72.41 16.86 74.25 14.22"/><path class="cls-4" d="M14.8,36.29a6.65,6.65,0,0,1-4.65-1.47,5.47,5.47,0,0,1-1.61-4.25V20.94a4.86,4.86,0,0,1,1.6-4,7,7,0,0,1,4.66-1.35A7.07,7.07,0,0,1,19.47,17a4.88,4.88,0,0,1,1.59,4v9.63a5.47,5.47,0,0,1-1.61,4.25A6.65,6.65,0,0,1,14.8,36.29Zm0-3.73c.77,0,1.16-.6,1.16-1.79v-9.9c0-1-.38-1.5-1.13-1.5s-1.27.51-1.27,1.54v9.88a2.48,2.48,0,0,0,.29,1.36A1.09,1.09,0,0,0,14.84,32.56Z"/><path class="cls-4" d="M22.88,36.14v-12h3.59v.69A2.63,2.63,0,0,1,28.73,24a3,3,0,0,1,2.27.77,3,3,0,0,1,.71,2.11v9.26H28.17v-9a1.25,1.25,0,0,0-.18-.65.66.66,0,0,0-.62-.3.75.75,0,0,0-.6.23,1.07,1.07,0,0,0-.25.57,5,5,0,0,0-.05.67v8.45Z"/><path class="cls-4" d="M37.32,36.27a5.76,5.76,0,0,1-2.56-.48A2.91,2.91,0,0,1,33.4,34.4,5.3,5.3,0,0,1,33,32.22V27.4a2.93,2.93,0,0,1,1.2-2.54A5.63,5.63,0,0,1,37.5,24c2.88,0,4.33,1.14,4.33,3.4v.87c0,1.06,0,1.77,0,2.13H36.58v2.32a3.35,3.35,0,0,0,.05.63,1.07,1.07,0,0,0,.22.51.74.74,0,0,0,.57.2c.37,0,.61-.13.7-.39a3.15,3.15,0,0,0,.14-1V31.5h3.57v.68a5.4,5.4,0,0,1-.42,2.26A2.79,2.79,0,0,1,40,35.81,6.61,6.61,0,0,1,37.32,36.27ZM36.56,29h1.7V27.36a1.67,1.67,0,0,0-.2-.93.68.68,0,0,0-.6-.29.85.85,0,0,0-.67.27,1.52,1.52,0,0,0-.23.95Z"/><path class="cls-2" d="M45.13,36.11V15.82h6.71a6.41,6.41,0,0,1,3.34.75A4.23,4.23,0,0,1,57,18.7a9.36,9.36,0,0,1,.53,3.3A10.28,10.28,0,0,1,57,25.21a3.87,3.87,0,0,1-1.59,2.11,5.94,5.94,0,0,1-3.25.75H50.12v8Zm5-11.68h.29c.94,0,1.52-.21,1.73-.63a4.34,4.34,0,0,0,.32-1.87,4.06,4.06,0,0,0-.31-1.78c-.21-.42-.69-.63-1.46-.63h-.57Z"/><path class="cls-2" d="M60.53,36.27q-4.2,0-4.2-3.49v-4.5a3.15,3.15,0,0,1,1.12-2.54,5.48,5.48,0,0,1,6.17,0,3.15,3.15,0,0,1,1.12,2.54v4.5Q64.74,36.28,60.53,36.27Zm0-2.07a.74.74,0,0,0,.61-.24,1,1,0,0,0,.18-.62V27.85c0-.65-.26-1-.79-1s-.79.33-.79,1v5.49a1,1,0,0,0,.19.62A.7.7,0,0,0,60.53,34.2Z"/><path class="cls-2" d="M66,36.15V24.91h3.35V36.15Z"/><path class="cls-2" d="M70.64,36.15V24.91H74v1.43a2.21,2.21,0,0,1,.7-1.09,2.07,2.07,0,0,1,1.42-.46,2.76,2.76,0,0,1,2.12.72,2.81,2.81,0,0,1,.66,2v8.67H75.59V27.76a1.19,1.19,0,0,0-.17-.61.61.61,0,0,0-.58-.28.73.73,0,0,0-.57.21,1.12,1.12,0,0,0-.23.53,4.68,4.68,0,0,0,0,.64v7.9Z"/><path class="cls-2" d="M83.1,36.27a2.74,2.74,0,0,1-1.84-.46,1.93,1.93,0,0,1-.47-1.42v-7h-1v-2h1V23h3.26v2.38h1v2h-1v6.38a.54.54,0,0,0,.11.38.61.61,0,0,0,.44.12,2.41,2.41,0,0,0,.4,0v1.82l-.7.12A8.08,8.08,0,0,1,83.1,36.27Z"/><path class="cls-4" d="M95.24,28.64H91.36v2.54h3.89v3.71H88.12v-10H92V21.72H88.12V18h7.12ZM100,36.58H96.89V28.67H95.56V25h1.32V17.81H100Zm3.62,0h-3.12V17.78h3.12Z"/><path class="cls-4" d="M106.07,26.47h14.7V30h-14.7Zm7.35-3.69a7.45,7.45,0,0,1-2.81,2,9.52,9.52,0,0,1-3.72.71L106.28,22a6.15,6.15,0,0,0,2.63-.54A4.46,4.46,0,0,0,110.75,20a4.36,4.36,0,0,0,.75-2.27h3.84a4.36,4.36,0,0,0,.75,2.27,4.46,4.46,0,0,0,1.84,1.52,6.15,6.15,0,0,0,2.63.54L120,25.48a9.52,9.52,0,0,1-3.72-.71A7.45,7.45,0,0,1,113.42,22.78Zm-3.1,8.16v2.18h10v3.46H106.48V30.94Z"/></svg>